<svg xmlns="http://www.w3.org/2000/svg" width="1200" height="675" viewBox="0 0 1200 675" role="img" aria-labelledby="t d"><title id="t">Cleaning messy CSV data</title><desc id="d">A messy table passing through validation steps into a clean dataset.</desc><defs><linearGradient id="g" x2="1" y2="1"><stop stop-color="#172554"/><stop offset="1" stop-color="#065f46"/></linearGradient></defs><rect width="1200" height="675" fill="url(#g)"/><text x="70" y="100" fill="#fff" font-family="Arial" font-size="50" font-weight="700">Cleaning Messy CSV Data</text><text x="72" y="145" fill="#bbf7d0" font-family="Arial" font-size="22">PROFILE • NORMALISE • VALIDATE • REPORT</text><g transform="translate(80 220)"><rect width="360" height="320" rx="26" fill="#fff" opacity=".95"/><g stroke="#94a3b8" stroke-width="4"><path d="M30 70h300M30 130h300M30 190h300M30 250h300M120 35v250M240 35v250"/></g><g fill="#ef4444"><circle cx="180" cy="100" r="13"/><circle cx="290" cy="220" r="13"/></g></g><path d="M480 380h205" stroke="#fbbf24" stroke-width="18" stroke-linecap="round"/><path d="M685 380l-50-35v70z" fill="#fbbf24"/><g transform="translate(730 220)"><rect width="390" height="320" rx="26" fill="#fff" opacity=".95"/><g stroke="#94a3b8" stroke-width="4"><path d="M30 70h330M30 130h330M30 190h330M30 250h330M140 35v250M270 35v250"/></g><g fill="none" stroke="#16a34a" stroke-width="10" stroke-linecap="round"><path d="M72 100l18 18 35-42M72 160l18 18 35-42M72 220l18 18 35-42"/></g></g></svg>
