<svg xmlns="http://www.w3.org/2000/svg" width="1200" height="675" viewBox="0 0 1200 675" role="img" aria-labelledby="title desc">
  <title id="title">Vector retrieval system</title><desc id="desc">A query vector locating related documents in an embedding space.</desc>
  <defs><linearGradient id="bg" x1="0" y1="0" x2="1" y2="1"><stop stop-color="#071a2f"/><stop offset="1" stop-color="#102a43"/></linearGradient><filter id="glow"><feGaussianBlur stdDeviation="8" result="b"/><feMerge><feMergeNode in="b"/><feMergeNode in="SourceGraphic"/></feMerge></filter></defs>
  <rect width="1200" height="675" rx="28" fill="url(#bg)"/><g opacity=".18" stroke="#8bd3ff"><path d="M0 135h1200M0 270h1200M0 405h1200M0 540h1200"/><path d="M200 0v675M400 0v675M600 0v675M800 0v675M1000 0v675"/></g>
  <g fill="#172f4b" stroke="#72d4ff" stroke-width="3"><rect x="80" y="240" width="250" height="190" rx="24"/><rect x="870" y="105" width="245" height="118" rx="20"/><rect x="870" y="278" width="245" height="118" rx="20"/><rect x="870" y="451" width="245" height="118" rx="20"/></g>
  <g fill="#dff6ff" font-family="Arial, sans-serif"><text x="205" y="305" text-anchor="middle" font-size="25" font-weight="700">QUERY</text><text x="205" y="354" text-anchor="middle" font-size="18">“reliable data pipeline”</text><text x="992" y="164" text-anchor="middle" font-size="21">Document A</text><text x="992" y="337" text-anchor="middle" font-size="21">Document B</text><text x="992" y="510" text-anchor="middle" font-size="21">Document C</text></g>
  <g fill="#49e3b0" filter="url(#glow)"><circle cx="528" cy="210" r="13"/><circle cx="653" cy="318" r="13"/><circle cx="570" cy="470" r="13"/><circle cx="760" cy="165" r="13"/><circle cx="780" cy="420" r="13"/></g><circle cx="660" cy="335" r="80" fill="none" stroke="#ffd166" stroke-width="4" stroke-dasharray="10 10"/><path d="M330 334C450 334 500 335 575 335" fill="none" stroke="#ffd166" stroke-width="7"/><path d="m565 319 28 16-28 16" fill="#ffd166"/>
  <g stroke="#72d4ff" stroke-width="3" opacity=".75"><path d="M673 318 870 164"/><path d="M673 335 870 337"/><path d="M668 352 870 510"/></g><text x="80" y="90" fill="#fff" font-family="Arial, sans-serif" font-size="42" font-weight="700">VECTOR SEARCH &amp; RETRIEVAL</text><text x="80" y="126" fill="#8bd3ff" font-family="Arial, sans-serif" font-size="20">Embeddings • similarity • ranked context</text>
</svg>
